<svg width="244" height="22" viewBox="0 0 244 22" fill="none" xmlns="http://www.w3.org/2000/svg">
<path d="M10.41 21H6.9V4.08H0.84V0.989998H16.47V4.08H10.41V21ZM36.3816 21H32.3916L30.9216 17.16H21.7416L20.2716 21H16.2816L24.1416 0.989998H28.5216L36.3816 21ZM29.9316 14.07L26.3316 4.53L22.7316 14.07H29.9316ZM54.9471 21H50.8971L46.4571 13.53H42.9771V21H39.4671V0.989998H48.2571C50.2171 0.989998 51.7971 1.57 52.9971 2.73C54.1971 3.89 54.7971 5.4 54.7971 7.26C54.7971 8.94 54.3371 10.29 53.4171 11.31C52.4971 12.31 51.3771 12.92 50.0571 13.14L54.9471 21ZM47.7771 10.44C48.7771 10.44 49.5971 10.15 50.2371 9.57C50.8771 8.99 51.1971 8.22 51.1971 7.26C51.1971 6.3 50.8771 5.53 50.2371 4.95C49.5971 4.37 48.7771 4.08 47.7771 4.08H42.9771V10.44H47.7771ZM62.715 21H59.205V0.989998H62.715V21ZM85.4487 21H81.2487L75.6387 13.17L70.0287 21H65.8287L73.3287 10.74L66.2787 0.989998H70.4787L75.6387 8.34L80.7687 0.989998H84.9987L77.9787 10.71L85.4487 21ZM109.393 21H105.883V6.15L99.7327 21H98.2327L92.1127 6.15V21H88.6027V0.989998H93.5527L98.9827 14.16L104.443 0.989998H109.393V21ZM132.551 21H128.561L127.091 17.16H117.911L116.441 21H112.451L120.311 0.989998H124.691L132.551 21ZM126.101 14.07L122.501 4.53L118.901 14.07H126.101ZM152.977 21H149.587L139.147 6.72V21H135.637V0.989998H139.237L149.467 14.88V0.989998H152.977V21ZM168.239 21H158.129V0.989998H167.969C169.749 0.989998 171.139 1.48 172.139 2.46C173.159 3.42 173.669 4.63 173.669 6.09C173.669 7.29 173.329 8.31 172.649 9.15C171.989 9.97 171.169 10.48 170.189 10.68C171.269 10.84 172.179 11.4 172.919 12.36C173.679 13.3 174.059 14.38 174.059 15.6C174.059 17.2 173.539 18.5 172.499 19.5C171.479 20.5 170.059 21 168.239 21ZM167.249 9.27C168.129 9.27 168.819 9.03 169.319 8.55C169.819 8.07 170.069 7.45 170.069 6.69C170.069 5.91 169.819 5.28 169.319 4.8C168.819 4.32 168.129 4.08 167.249 4.08H161.639V9.27H167.249ZM167.399 17.91C168.359 17.91 169.109 17.67 169.649 17.19C170.189 16.69 170.459 16 170.459 15.12C170.459 14.34 170.189 13.69 169.649 13.17C169.109 12.63 168.359 12.36 167.399 12.36H161.639V17.91H167.399ZM196.482 21H192.492L191.022 17.16H181.842L180.372 21H176.382L184.242 0.989998H188.622L196.482 21ZM190.032 14.07L186.432 4.53L182.832 14.07H190.032ZM202.568 20.73C202.148 21.13 201.658 21.33 201.098 21.33C200.538 21.33 200.048 21.13 199.628 20.73C199.208 20.31 198.998 19.81 198.998 19.23C198.998 18.65 199.208 18.16 199.628 17.76C200.048 17.34 200.538 17.13 201.098 17.13C201.658 17.13 202.148 17.34 202.568 17.76C202.988 18.16 203.198 18.65 203.198 19.23C203.198 19.81 202.988 20.31 202.568 20.73ZM215.583 21.36C212.743 21.36 210.583 20.62 209.103 19.14C207.643 17.66 206.913 15.65 206.913 13.11V0.989998H210.453V12.99C210.453 14.61 210.893 15.89 211.773 16.83C212.673 17.77 213.943 18.24 215.583 18.24C217.223 18.24 218.483 17.77 219.363 16.83C220.243 15.89 220.683 14.61 220.683 12.99V0.989998H224.223V13.08C224.223 15.64 223.483 17.66 222.003 19.14C220.543 20.62 218.403 21.36 215.583 21.36ZM243.565 21H228.565V18.15L238.795 4.08H228.565V0.989998H243.355V3.84L233.125 17.91H243.565V21Z" fill="white"/>
</svg>
